<?xml version="1.0" standalone="no"?>
<!DOCTYPE svg PUBLIC "-//W3C//DTD SVG 20010904//EN"
 "http://www.w3.org/TR/2001/REC-SVG-20010904/DTD/svg10.dtd">
<svg version="1.0" xmlns="http://www.w3.org/2000/svg"
 width="244.000000pt" height="244.000000pt" viewBox="0 0 244.000000 244.000000"
 preserveAspectRatio="xMidYMid meet">
<metadata>
Created by potrace 1.11, written by Peter Selinger 2001-2013
</metadata>
<g transform="translate(0.000000,244.000000) scale(0.100000,-0.100000)"
fill="#000000" stroke="none">
<path d="M738 2384 c-9 -3 -21 -17 -26 -32 -5 -15 -39 -75 -75 -135 -36 -59
-81 -144 -99 -190 l-33 -82 3 -279 c2 -249 5 -285 23 -339 17 -49 21 -91 23
-226 2 -154 5 -177 40 -316 27 -108 50 -173 81 -232 31 -59 47 -104 56 -159
12 -77 12 -78 -12 -93 -91 -59 -177 -179 -193 -268 l-5 -33 782 1 c705 1 776
2 721 15 l-61 15 -12 54 c-19 83 -79 165 -162 220 l-69 47 7 41 c3 23 16 58
28 77 86 137 117 279 135 608 6 126 15 203 32 267 19 77 23 116 23 265 0 193
-13 271 -66 411 -71 184 -245 291 -559 345 -93 15 -544 29 -582 18z m227 -943
c48 -22 98 -71 73 -71 -9 0 -39 -11 -66 -25 -77 -38 -183 -28 -251 24 l-23 18
30 22 c73 51 167 64 237 32z m653 12 c-10 -2 -26 -2 -35 0 -10 3 -2 5 17 5 19
0 27 -2 18 -5z m-75 -13 c-31 -12 -39 -54 -19 -86 15 -22 23 -25 69 -22 45 3
53 6 65 31 11 23 11 32 -2 57 -13 26 -13 30 0 30 22 0 66 -25 89 -50 l20 -22
-24 -19 c-57 -47 -180 -50 -268 -7 l-53 25 23 20 c30 28 78 52 102 52 18 0 18
-1 -2 -9z"/>
<path d="M816 1434 c-22 -21 -20 -67 2 -87 26 -23 94 -22 115 1 21 23 22 66 1
86 -9 10 -33 16 -59 16 -26 0 -50 -6 -59 -16z"/>
</g>
</svg>
